<?xml version="1.0" encoding="UTF-8"?>
<svg version="1.1" viewBox="0 0 2048 1324" width="300" height="194" xmlns="http://www.w3.org/2000/svg">
    <path transform="translate(1751,530)" d="m0 0h60l34 3 35 5 36 7 11 3-1 7-11 28-15 31-13 23-14 23-14 20-11 14-9 11-12 14-8 8-7 8-10 9-12 11-14 11-18 13-22 13-23 12-28 11-24 7-31 6-18 2-17 1h-24l-27-2-28-4-29-6-31-9-31-11-3-3 16-17 9-9 8-7 10-9 11-9 18-14 16-11 18-12 21-13 24-13 26-13 30-13 35-13 33-10 36-9 20-4h-23l-35 4-36 7-35 9-36 12-28 11-33 15-30 15-24 14-23 14-27 18-11 8-2-1 10-19 14-22 12-16 8-10 12-14 14-15 14-14 11-9 9-8 17-13 13-9 18-11 18-10 22-11 28-11 21-7 32-8 36-6z" fill="#82B043"/>
<path transform="translate(663,921)" d="m0 0h14l6 5 2 5v10l-6 15-12 22-14 25-12 20-7 12 8-6 6-1 9 4 7 6 4 8 1 6v8l-4 16-5 12-7 12 4-1 14-19 14-22 12-21 5-11-1-8-4-10-1-10 2-9 5-8 6-5 10-2 7 2 7 8 2 4 1 8-2 10-4 8-3 5 15 6 9 5 7 7 2 8-4 11-9 17-14 24-8 16-1 5 5-3 12-12 7-8 11-12 9-11 10-14 9-11 11-11 14-10 11-5 11-3h13l11 4 5 4 5 10v9l-2 4-9-6-7-3-5-1-9 2-9 6-10 9-11 12-13 18-9 15-9 19-2 6v7l7-1 9-7 13-15 13-16 14-19 9-15 2-6v-6l9 2 10 6 4 6 1 3v7l-4 9-12 22-12 20 9-6 20-20 16-30 10-19 5-12 1-3v-11l4-2h12l6 3 5 6 2 9-2 9-10 19 4-2 14-12 26-22 12-9 3-1h9l9 4 5 5 3 6-1 9-31 51-15 29v2l18-18 12-23 8-12 9-12 12-14 7-7 16-12 12-6 7-2h11l5 3 2 5v6l10-16 16-26 13-21 10-18 3-8v-9l-2-5 11-4h16l5 4 2 6-1 12-5 13-14 25-15 24-12 19-16 26-12 19-12 20-10 18-3 7-1 5 7-3 10-9 14-16 10-13 9-9 9-14 11-13 9-9 13-9 10-5 7-2h18l6 3 2 4v8l-4 10-4 2-1-5h-9l-12 6-13 11-9 10-7 10-8 15-5 15-1 5v9l4 6 6-1 9-6 10-11 10-15 12-23 4-14 1-8 1-1 9-1h22l3 1-1 5-7 2h-15l-3 17-6 16-9 16-10 13-9 10-10 8-14 7-8 2-11-1-9-5-4-7-2-6v-21l-26 26-10 8-5 5-5 2-9-1-5-5-4-10-1-8-15 15-8 6-10 1-12-3-8-6-4-5-2-3-8 8-13 9-3 1h-7l-9-6-5-7v-7l5-15 14-28 14-24 10-18 3-6-11 8-15 14-17 17-7 8-13 15-12 15-14 21-2 7 3 1-8 4-4 1h-9l-6-3-2-4v-7l-13 10-9 3h-6l-7-5-3-6-1-11v-5l-4 5-8 7-13 11-5 3h-14l-12-5-7-7-2-5v-8l2-8-14 17-17 17-7 1-7-4-7-9-3-8v-8l4-11 8-16 11-21 10-18 6-11-1-7-5-3-10-2-2 4-17 29-13 19-8 10-3 4 8-4h5l1 1-1 7-7 7-8 3-26 2-8 10-11 12-11 9-10 3h-18l-7-2-9-8-5-10-2-13-5 5-16 17-8 7-9 6h-11l-7-2-5-5v-10l8-20 16-33 12-22 7-14-9 6-19 19-7 8-12 14-9 12-12 24-6 16-1 6-12 1-9-3-4-6 1-10 10-23 8-17 10-19 15-29-11 8-19 19-7 8-13 16-13 18-10 16-5 10-1 5 3 2-9 4h-12l-6-3-2-4v-10l3-8-15 11-16 9-15 5-10 1-7-3-11-8-7-8-3-10v-8l4-14 11-21 10-14 9-11 21-21 13-9 13-6 7-2h13l6 4 4 6 1 11-3 13-7 13-10 11-13 10-14 9-17 8-15 3h-2l-3 9-1 5v12l3 5h10l12-4 14-8 12-9 14-12 9-10 9-14 16-28 7-14 1-3v-9l8-2 10 1 7 6 1 2v13l-7 14 1 1 8-8 8-7 18-14 10-8 8 2 6 4 6 8 2 10-1 5 10-9 14-11 11-9 7 1 8 6 4 5 3 7v8l-4 8-8 11-15 25-13 24-5 10 1 1 15-14 10-11 7-8 8-10 13-24 13-23 14-26 14-24 10-18 9-16 5-13 1-9-1-5zm51 66-4 5-1 4v14l2 2 9-17 1-8zm-320 47-8 6-12 11-10 10-7 8-11 13-5 8 6-1 9-6 10-9 6-5 7-8 12-15 4-7v-5zm572 3m92 1-8 5-10 9-8 8-9 11-11 15-9 16-5 11-3 11v10l4 1 6-4 5-4 7-8 10-11 11-14 13-22 9-17 3-9v-6l-2-2zm-418 2-8 7-11 11-7 8-6 8-14 25-10 18-1 3v10l4 3 8-1 6-4 11-11 13-17 11-18 8-18 3-11v-8l-2-5z" fill="#148A43"/>
<path transform="translate(844,112)" d="m0 0h23l31 2 30 4 29 6 25 7 26 9 23 10 21 10 18 10 19 12 17 12 14 11 10 8-2 1-23-12-21-10-26-10-25-8-24-6-36-6-18-2-15-1h-43l-33 3-30 5-26 6-29 9-28 11-31 15-21 12-27 18-13 10-16 13-13 12-10 9-16 17-9 11-11 13-12 17-10 15-14 24-15 30-11 28-8 24-7 28-5 27-3 25-1 12v54l3 30 5 29 6 25 7 24 11 29 17 35 12 21 16 24 9 12 13 16 12 14 31 31-5-2-16-10-18-13-14-11-14-12-7-7-8-7-10-10-7-8-10-11-11-14-13-18-11-17-9-15-14-27-9-20-9-25-8-26-7-30-4-25-3-35v-38l3-36 5-30 9-36 12-35 11-25 11-22 15-25 13-19 9-12 9-11 12-14 10-10 7-8 17-16 11-9 14-11 18-13 19-12 18-10 15-8 32-14 36-12 28-7 29-5 28-3z" fill="#DB9600"/>
<path transform="translate(1019)" d="m0 0h48l31 3 29 5 25 6 27 8 27 10 18 8 19 10 18 10 20 13 14 10 14 11 13 11 13 12 21 21 7 8 11 13 14 19 10 15 12 20 14 26 11 25 11 31 8 29 7 36 3 26 1 14v48l-3 30-5 29-8 32-12 36-11 26-11 22-13 22-16 24-9 12-9 11-12 14-15 16-7 7-8 7-10 9-14 11-16 12-15 10-24 14-27 14-2-1 13-10 14-11 15-13 15-14 15-16 9-11 13-16 14-20 13-21 15-28 12-27 9-25 6-19 6-24 6-35 3-33v-43l-3-33-6-35-6-24-8-25-9-24-13-28-10-19-12-20-12-17-13-17-11-13-7-8-1-3h-2l-7-8-11-11-8-7-10-9-14-11-19-14-22-14-25-14-21-10-28-11-31-10-30-7-30-5-20-2-18-1h-28l-29 2-29 4-28 6-25 7-29 10-12 5-3-1 17-11 21-12 26-13 28-11 24-8 36-9 30-5z" fill="#CA6017"/>
<path transform="translate(1516,903)" d="m0 0 22 1 15 3 14 5 11 7 6 7 3 7 1 11-3 8-6 5-10 4h-9l5-6 1-7-3-8-5-4-11-4-6-1h-36l-30 4-28 6-9 15-11 23-12 23-8 15 24-9 5-5 5 1 2 6v12l10 1 8 4 3 5v8l-5 10-12 19-17 28-12 21-5 11 9-1 9-6 10-9 14-14 11-14 10-13 12-19 7-14 1-9v-4l7-4 4-1h9l6 3 3 4 1 3v7l-5 12-12 24-12 22-12 23-3 8 13-13 9-11 14-15 8-13 16-29 12-21 15-26 9-16-20-1h-26l-1 9-4 4h-9l-3-4 1-6 5-9 6-5 6-3 8-1h46l2-5 7-14 1-3v-10l-3-5 11-4h15l5 3 3 3 2 7-1 9-6 16 39-1 28-4 8-2-1-5 7 3 3 3 2 5v7l-3 9-6 5-9 3-19 2h-36l-27-2-2 6-34 58-15 25-12 21-11 23-2 7 8-4 27-27 7-8 9-15 14-24 9-17 2-10h10l10 3 5 5 1 3v7l-8 15-14 22-14 23-9 16-5 11v2l8-1 10-7 10-9 13-13 11-14 14-19 9-15 7-15 1-7h-2l2-4 6-3 4-1h9l6 3 3 4 1 9-5 13-12 24-10 19-14 26-4 9 13-13 9-11 13-14 6-7 5-3 14-22 10-18 7-14-1-8-4-10-1-11 3-10 4-6 6-5 10-2 7 2 7 8 2 4 1 9-3 12-6 10 15 6 9 5 7 7 2 8-5 13-12 22-10 17-8 16-1 5 5-3 12-12 7-8 10-11 16-24 12-14 11-10 13-8 9-4 11-2 12 1 6 4 1 2v10l-4 9-3 2-2-5h-9l-13 7-13 11-9 11-7 10-8 16-4 13-1 12 3 6 5 1 9-5 8-8 10-13 12-21 7-17 2-13 2-2 8-1h23l3 3-4 4-5 1h-9l-6-1-2 15-4 12-8 17-9 13-12 14-9 8-14 8-5 2-11 1-10-3-5-3-5-10-1-4-1-16-11 13-7 8-14 14-2 1h-6l-9-7-6-10-1-4v-8l5-14 14-27 12-21 8-15v-6l-6-4-10-2-2 4-17 29-13 19-8 10-7 8-9 6-11 13-9 10-7 8-10 9-10 5-3 1h-7l-7-6-2-6 1-9 10-22-5 4-6 7-8 7-15 12-12 7-6 2h-10l-7-5-4-8v-15l-21 21-12 8h-8l-7-4-6-12-2-12-7 8-12 13-10 7-8 3h-7l-7-6-2-6 1-9 10-23-12 13-8 7-14 11-12 7-6 2h-10l-6-4-4-6-1-3v-13l5-14 12-21 24-40 7-14-38 11-7 3-12 23-10 19-15 32-8 21 1 9 4 6h-8l-12-4-8-6-4-6-1-9 5-14 11-23 8-16 12-26-10 4-17 9-19 13-18 13h-1l1-10 7-14 11-12 9-8 13-8 22-11 13-5h3l2-5 10-16 10-18 17-34-20 8-25 12-18 10-16 11-10 8-8 7-5 7-1 7 5 5 8 3-1 2-10 2-7-3-5-5-3-6-1-4v-9l4-13 6-9 11-12 13-10 16-10 23-12 27-11 27-9 34-9 26-5 23-3zm225 84-4 5-1 3v15l2 2 8-15 2-5v-5zm-280 119 1 2z" fill="#158A43"/>
<path transform="translate(218,634)" d="m0 0h34l25 2 26 4 28 7 20 7 24 11 20 12 16 12 11 9v2l4 2 14 15 13 17 10 16 12 23 10 25 8 27 6 29 1 8-9-1-24-7-22-8-27-12-25-13-18-11-19-13-17-13-16-13-13-12-15-14-7-8-13-13 9 14 12 16 9 11 22 24 13 12 10 9 14 11 16 12 24 16 20 12 22 12 27 13v1h-36l-29-4-25-6-27-9-20-9-19-10-24-16-14-11-12-11-20-20-9-11-13-17-14-22-12-22-11-23-9-23-10-30v-3l8-2 25-3z" fill="#82B043"/>
<path transform="translate(655,262)" d="m0 0 10 2 33 11 23 10 20 10 20 12 16 11 14 11 14 12 25 25 9 11 13 17 13 20 12 21 13 27 9 24 8 26 2 8v4h2l2-6 12-21 16-24 10-14 13-16 12-13 22-22 14-11 14-10 18-11 19-10 25-10 28-8 28-6 25-3h48l26 3 29 6 24 7 6 2v2h-27l-31 2-30 4-34 7-31 9-21 8-18 8-16 8-18 10-20 14-16 13-12 11-14 14-9 11-10 13-14 22-14 27-10 25-6 18-7 28-5 27-6 54-7 78-8 109-3 48-1 10-2-4-9-53-8-57-7-62-5-57-3-45-2-47-2-18-6-31-9-36-10-32-11-28-9-20-11-22-14-24-14-21-13-17-11-13-9-10-11-12-8-8-8-7-11-9-20-15-19-12-18-10-9-4z" fill="#148A43"/>
<path transform="translate(922,236)" d="m0 0h19l17 4 14 7 10 8 9 9 7 11 5 11 3 12 1 8v10l-3 16-5 13-6 10-11 12-12 9-13 6-11 3-6 1h-16l-15-3-14-6-11-8-9-8-9-13-5-10-4-15v-24l4-15 7-14 8-10 7-7 14-9 12-5z" fill="#138A43"/>
<path transform="translate(342,906)" d="m0 0h13l11 3 10 6 3 5 1 6v11l-4 10-7 9-11 10-15 10-13 6-4 1h-14l-9-4-3-4v-10l4-6 3-2 1 8 1 1h9l16-8 14-10 13-12 7-10v-1h-11l-16 4-16 6-17 8-19 12-12 9-11 10-8 11-3 8v9l7 21 2 2 30-7 13-2h8l8 3 5 5 2 3v10l-4 11-5 5-1-6-7-3-7-1h-15l-19 2 4 18 1 8v14l-3 17-5 13-6 11-8 10-14 14-15 10-13 6-14 4-6 1h-25l-12-3-12-6-6-5-7-11-3-9v-19l5-13 8-12 11-12 11-9 18-12 27-14 23-10h3l-6-10-5-12-1-5v-18l4-12 7-13 9-11 13-12 13-9 16-9 16-7 24-8zm-102 145-24 8-25 12-12 8-11 9-12 12-7 12-2 8v9l4 9 8 7 12 5 6 1h11l16-4 10-5 10-9 8-9 8-16 4-13 1-6v-22l-4-16z" fill="#148A43"/>
<path transform="translate(60,1204)" d="m0 0h19l4 9 18 50 17 46 3 8v4h-17l-15-44-1-5-47 1-13 27-9 20-1 1h-18l2-5 42-82 13-25zm8 13-10 19-11 22v2h37l-12-36-3-7z" fill="#CA6117"/>
<path transform="translate(1463,1204)" d="m0 0h15v16l-2 41-2 60h-15v-15l-9 10-9 5-4 1h-19l-12-5-7-6-6-10-3-16 1-13 4-13 7-11 8-7 12-6 16-3h13l11 2v-29zm-27 39-12 4-9 7-5 7-4 11-1 6v8l3 12 6 8 10 5h15l8-4 8-9 4-10 2-16v-27l-5-2z" fill="#CA6117"/>
<path transform="translate(964,1204)" d="m0 0h15l1 4-3 66-1 32-1 15h-14v-16l-6 8-8 6-8 3h-19l-10-4-6-4-6-7-4-9-2-10v-10l3-14 7-14 8-8 8-5 9-3 12-2h13l12 2zm-26 39-10 3-9 6-6 7-4 8-2 8v14l3 10 7 8 9 4h14l10-5 6-7 4-9 2-12 1-20v-13l-6-2z" fill="#CA6117"/>
<path transform="translate(1141,1204)" d="m0 0h52l9 2 8 6 6 10 1 4v12l-3 10-6 9-8 6-9 4-12 2-16-1-2-1-2-11 16 1 11-2 8-5 4-5 2-5 1-8-3-9-5-5-9-2h-27l-1 5-2 58-1 41-1 1h-15v-14l3-72z" fill="#CA6217"/>
<path transform="translate(1328,1232)" d="m0 0h11l16 4 9 6 7 8 4 10 2 10v10l-3 14-6 12-6 7-10 6-9 3h-23l-12-4-9-7-6-8-4-10-1-5v-18l3-11 5-10 4-5 9-6 9-4zm2 11-11 3-8 6-5 8-3 11v17l3 10 8 9 8 4 13 1 11-3 9-8 5-11 2-16-2-13-4-8-7-6-7-3z" fill="#CA6117"/>
<path transform="translate(1777,1232)" d="m0 0h11l13 3 8 4 8 7 5 9 3 10v20l-4 13-5 9-8 8-10 5-7 2h-22l-12-4-8-6-7-8-4-10-2-13 2-18 4-10 7-9 10-7 12-4zm7 11-11 1-10 5-6 7-4 10-1 4v19l4 11 4 5 8 5 8 2 13-1 10-5 6-7 4-10 1-5v-18l-4-11-5-6-10-5z" fill="#CA6117"/>
<path transform="translate(242,1232)" d="m0 0h11l16 4 9 6 6 7 5 11 2 12-1 14-5 15-8 11-9 6-8 3-4 1h-22l-12-4-8-6-6-7-5-12-1-4v-20l4-13 7-11 11-8 12-4zm-3 12-9 4-6 5-5 10-2 8v17l3 10 8 9 8 4 5 1h8l10-3 6-4 5-6 4-10 1-5v-18l-4-11-6-7-9-4z" fill="#CA6117"/>
<path transform="translate(681,1232)" d="m0 0h11l16 4 10 7 6 8 4 10 1 4v20l-4 13-6 10-7 7-10 5-7 2h-22l-12-4-8-6-6-7-5-11-1-4v-22l4-12 6-10 7-6 10-5zm-4 12-10 5-6 7-4 10-1 4v19l4 11 5 5 5 4 10 3h8l10-3 8-6 5-8 3-12v-16l-3-10-6-8-10-5z" fill="#CA6117"/>
<path transform="translate(793,1232)" d="m0 0h11l13 3 6 4 6 7 2 6v25l-2 44h-15l-1-3 2-33v-27l-3-6-5-4-5-2-12-1-9 2-9 6-6 10-2 9-2 26-1 23h-16l3-51 1-30 1-6h15v14l7-8 8-5z" fill="#CA6117"/>
<path transform="translate(1500,1234)" d="m0 0h15v11l-2 30v21l4 8 6 4 9 2 12-1 10-5 5-6 4-10 2-20 1-30 1-4h15l-1 22-3 65h-14l-1-5v-9l-6 8-9 5-7 2h-22l-10-4-8-7-3-7-1-5 1-29z" fill="#CA6117"/>
<path transform="translate(461,1232)" d="m0 0h14l14 3 9 6 3 6v27l-2 46-1 1h-15l1-19 2-31-12 6-23 7-8 5-4 4-1 3v7l3 5 4 3 3 1h18l8-2-1 7-1 4-4 1h-27l-10-4-6-7-2-5-1-7 2-9 5-7 11-7 19-6 18-5 6-4 2-3v-8l-4-5-5-2h-22l-15 4-5 1 1-9 2-3 15-3z" fill="#CA6117"/>
<path transform="translate(1034,1232)" d="m0 0h11l13 3 9 6 6 8 3 9v16h-65l1 15 4 10 6 7 8 4 4 1h17l18-4-2 12-12 3h-27l-13-4-9-7-6-9-4-13v-20l4-13 5-9 7-7 12-6zm0 10-9 3-8 7-4 8-1 6h50v-8l-5-10-5-4-6-2z" fill="#CA6216"/>
<path transform="translate(1939,1232)" d="m0 0h11l12 3 10 6 6 9 3 11v12l-1 1h-64v10l3 12 4 6 7 6 9 3h17l17-4v7l-1 5-12 3h-28l-12-4-8-6-7-9-4-12-1-7v-9l2-12 5-12 6-8 10-7zm-1 10-10 4-7 7-4 9v4h50l-1-10-3-6-5-5-7-3z" fill="#CA6217"/>
<path transform="translate(1636,1232)" d="m0 0h13l17 3 1 3v9l-8-1-4-1-14-1-13 4-7 6-5 10-2 10v12l4 13 5 6 8 4 4 1h17l12-2-1 10-2 3-6 1h-27l-11-4-8-6-5-6-4-9-2-8v-18l4-15 5-9 8-8 10-5z" fill="#CA6117"/>
<path transform="translate(557,1232)" d="m0 0h13l17 3 1 13-12-3-14-1-9 2-9 6-4 5-4 10-1 5v15l3 11 6 7 8 4 3 1h18l12-2-2 12-7 2h-27l-11-4-6-4-8-9-4-10-1-5v-20l4-15 7-11 11-8 9-3z" fill="#CA6117"/>
<path transform="translate(343,1232)" d="m0 0h13l16 3 1 1v11l-7-1-18-2-9 2-8 5-6 7-4 11v21l4 10 5 5 8 4 3 1h18l8-2 4 1-2 11-8 2h-26l-12-4-9-7-6-10-3-10v-22l3-12 6-11 9-8 9-4z" fill="#CA6117"/>
<path transform="translate(2020,1232)" d="m0 0h12l14 2 1 1 1 12-13-3h-11l-9 3-3 6 1 6 8 9 10 8 10 9 5 8 1 3v9l-4 8-7 6-9 3h-24l-12-3-1-13 10 3 11 2h7l9-3 3-3 1-2v-7l-4-6-9-8-11-9-8-9-3-9 1-8 5-8 6-4z" fill="#CA6117"/>
<path transform="translate(159,1232)" d="m0 0h13l14 2 1 3v10l-13-3h-11l-8 3-3 4v7l4 5v2l4 2 14 12 6 5 5 8 1 3v12l-5 8-8 5-6 2h-24l-12-3-1-3v-10l14 4 6 1h8l9-3 4-6-1-8-4-5-11-9-13-11-5-8-1-3v-10l4-7 6-5 8-3z" fill="#CA6117"/>
<path transform="translate(1704,1215)" d="m0 0h1v20h23v10h-24v19l-1 21v18l2 5 4 2h12l6-1-2 11-5 2h-21l-6-3-5-6-1-3v-20l2-36 1-9h-11v-10l11-1 1-15 9-3z" fill="#CA6117"/>
<path transform="translate(1880,1232)" d="m0 0h8l4 1v13l-10-1-9 2-7 5-5 9-2 10-1 14-1 36h-15v-18l2-51v-18h15l1 11 7-8 8-4z" fill="#CA6217"/>
<path transform="translate(1268,1232)" d="m0 0h8l3 1 1 13-11-1-8 2-6 4-4 5-4 11-1 8-2 46h-15l2-45 1-42h14l1 3-1 9h2l2-5 8-6z" fill="#CA6216"/>
<path transform="translate(394,1234)" d="m0 0h15v14l-2 49-1 24h-16v-11l2-39 1-33z" fill="#CA6217"/>
<path transform="translate(608,1234)" d="m0 0h16l-2 37-2 50h-16z" fill="#CA6216"/>
<path transform="translate(687,1201)" d="m0 0h17l-5 9-9 13h-11l7-21z" fill="#CA6117"/>
<path transform="translate(608,1204)" d="m0 0h17v11l-1 1h-16z" fill="#CC6714"/>
<path transform="translate(394,1204)" d="m0 0h17l-1 12h-16z" fill="#CB6515"/>
<path transform="translate(804,73)" d="m0 0 2 1z" fill="#D27B0C"/>
<path transform="translate(641,898)" d="m0 0" fill="#DB9600"/>
<path transform="translate(640,897)" d="m0 0" fill="#DB9600"/>
<path transform="translate(1216,806)" d="m0 0" fill="#DB9600"/>
</svg>
